<?xml version="1.0" encoding="UTF-8"?>
<svg id="Layer_1" data-name="Layer 1" xmlns="http://www.w3.org/2000/svg" viewBox="0 0 90.03 90.03">
  <defs>
    <style>
      .cls-1 {
        fill: #231f20;
        stroke-width: 0px;
      }
    </style>
  </defs>
  <path class="cls-1" d="M86.58,16.43l-12.98-12.98c-4.6-4.6-12.08-4.6-16.68,0L11.34,49.03c-3.72,3.72-6.13,8.43-6.96,13.63L0,90.03l27.37-4.38c5.19-.83,9.91-3.24,13.63-6.96l45.58-45.59c2.23-2.23,3.46-5.19,3.46-8.34s-1.23-6.11-3.46-8.34ZM35.26,74.06c-2.26,2.26-5.12,3.72-8.28,4.23l-18.15,2.91,2.9-18.15c.51-3.16,1.97-6.02,4.23-8.28L50.64,20.09l19.29,19.29-34.67,34.67Z"/>
</svg>