<?xml version="1.0" encoding="UTF-8"?>
<svg id="Layer_1" data-name="Layer 1" xmlns="http://www.w3.org/2000/svg" viewBox="0 0 88.35 80.18">
  <defs>
    <style>
      .cls-1 {
        fill: #231f20;
        stroke-width: 0px;
      }
    </style>
  </defs>
  <path class="cls-1" d="M45.26,0C19.86,0,2.17,8.61,2.17,16.34s17.7,16.34,43.09,16.34,43.09-8.61,43.09-16.34S70.65,0,45.26,0Z"/>
  <path class="cls-1" d="M45.26,37.3c-18.82,0-34.54-4.37-43.09-11.15v15.75c0,2.32,1.6,4.71,4.52,6.94h13.74c4.97,0,9.08,3.6,9.9,8.34,4.58.68,9.58,1.06,14.94,1.06,25.39,0,43.09-8.61,43.09-16.34v-15.75c-8.55,6.78-24.27,11.15-43.09,11.15Z"/>
  <g>
    <rect class="cls-1" x="10.53" y="52.58" width="5.68" height="26.74" rx="2.84" ry="2.84"/>
    <rect class="cls-1" x="10.53" y="52.58" width="5.68" height="26.74" rx="2.84" ry="2.84" transform="translate(79.32 52.58) rotate(90)"/>
  </g>
  <path class="cls-1" d="M45.26,62.87c-5.2,0-10.14-.34-14.78-.97v11.11c0,2.23-.73,4.28-1.96,5.95,4.99.77,10.59,1.23,16.74,1.23,26.7,0,43.09-8.5,43.09-14.59v-13.87c-8.55,6.78-24.27,11.15-43.09,11.15Z"/>
</svg>