<?xml version="1.0" encoding="UTF-8"?>
<svg id="Layer_1" data-name="Layer 1" xmlns="http://www.w3.org/2000/svg" viewBox="0 0 90.78 90.78">
  <defs>
    <style>
      .cls-1 {
        fill: #231f20;
        stroke-width: 0px;
      }
    </style>
  </defs>
  <path class="cls-1" d="M56.89,45.39l31.51-31.51c3.18-3.18,3.18-8.32,0-11.5h0c-3.18-3.18-8.32-3.18-11.5,0l-31.51,31.51L13.88,2.38C10.71-.79,5.56-.79,2.38,2.38h0C-.79,5.56-.79,10.71,2.38,13.88l31.51,31.51L2.38,76.9c-3.18,3.18-3.18,8.32,0,11.5h0c3.18,3.18,8.32,3.18,11.5,0l31.51-31.51,31.51,31.51c3.18,3.18,8.32,3.18,11.5,0h0c3.18-3.18,3.18-8.32,0-11.5l-31.51-31.51Z"/>
</svg>