<?xml version="1.0" encoding="UTF-8"?>
<svg id="Layer_1" data-name="Layer 1" xmlns="http://www.w3.org/2000/svg" viewBox="0 0 58.83 98.82">
  <defs>
    <style>
      .cls-1 {
        fill: #fff;
        stroke-width: 0px;
      }
    </style>
  </defs>
  <path class="cls-1" d="M51.11,21.24C50.85,9.48,41.23,0,29.41,0S7.98,9.48,7.71,21.24H0v62.17c0,8.5,6.91,15.41,15.41,15.41h28.01c8.5,0,15.41-6.91,15.41-15.41V21.24h-7.72ZM29.41,6.81c8.06,0,14.63,6.43,14.89,14.42H14.53c.26-8,6.83-14.42,14.89-14.42ZM52.02,83.41c0,4.74-3.86,8.6-8.6,8.6H15.41c-4.74,0-8.6-3.86-8.6-8.6V28.05h45.21v55.36Z"/>
  <rect class="cls-1" x="14.43" y="33.84" width="7.25" height="49.11" rx="3.63" ry="3.63"/>
  <rect class="cls-1" x="37.14" y="33.9" width="7.25" height="49.11" rx="3.63" ry="3.63"/>
</svg>