<?xml version="1.0" encoding="UTF-8"?>
<svg id="Layer_1" data-name="Layer 1" xmlns="http://www.w3.org/2000/svg" viewBox="0 0 93.38 95.05">
  <defs>
    <style>
      .cls-1 {
        fill: #231f20;
        stroke-width: 0px;
      }
    </style>
  </defs>
  <path class="cls-1" d="M55.17,0C33.75,0,16.96,9.1,16.96,20.71v36.25h11.39c4.22,0,7.63,3.37,7.74,7.56,5.59,1.72,12.06,2.73,19.08,2.73,12.91,0,24.1-3.32,30.99-8.48v13.59c0,6.38-12.73,13.49-30.99,13.49-7.44,0-13.94-1.19-19.06-3.02v4.68c0,.96-.2,1.86-.51,2.71,5.7,1.81,12.36,2.86,19.57,2.86,21.43,0,38.21-9.1,38.21-20.71V20.71C93.38,9.1,76.6,0,55.17,0ZM86.16,46.53c0,6.38-12.73,13.49-30.99,13.49s-30.99-7.11-30.99-13.49v-13.59c6.88,5.17,18.08,8.49,30.99,8.49s24.1-3.32,30.99-8.49v13.59ZM55.17,34.2c-18.26,0-30.99-7.11-30.99-13.49s12.73-13.49,30.99-13.49,30.99,7.11,30.99,13.49-12.73,13.49-30.99,13.49Z"/>
  <g>
    <rect class="cls-1" x="13.34" y="61.17" width="7.2" height="33.88" rx="3.6" ry="3.6"/>
    <rect class="cls-1" x="13.34" y="61.17" width="7.2" height="33.88" rx="3.6" ry="3.6" transform="translate(95.05 61.17) rotate(90)"/>
  </g>
</svg>