<?xml version="1.0" encoding="UTF-8"?>
<svg id="Layer_1" data-name="Layer 1" xmlns="http://www.w3.org/2000/svg" viewBox="0 0 93.87 93.92">
  <defs>
    <style>
      .cls-1 {
        fill: #fff;
        stroke-width: 0px;
      }
    </style>
  </defs>
  <path class="cls-1" d="M53.54,9.19C40.8-3.55,19.84-3.05,7.74,10.69c-10.42,11.84-10.31,29.97.26,41.69,9.36,10.38,23.83,12.97,35.77,7.81,4.41-1.9,9.52-.94,12.92,2.46l30.04,30.04c1.63,1.63,4.28,1.63,5.92,0h0c1.63-1.63,1.63-4.28,0-5.92l-30.04-30.04c-3.37-3.37-4.39-8.47-2.49-12.85,4.99-11.47,2.81-25.31-6.57-34.69ZM48.45,48.5c-9.45,9.45-24.77,9.45-34.22,0-9.45-9.45-9.45-24.77,0-34.22s24.77-9.45,34.22,0,9.45,24.77,0,34.22Z"/>
</svg>