<?xml version="1.0" encoding="UTF-8"?>
<svg id="Layer_1" data-name="Layer 1" xmlns="http://www.w3.org/2000/svg" viewBox="0 0 99.76 99.76">
  <defs>
    <style>
      .cls-1 {
        fill: #fff;
        stroke-width: 0px;
      }
    </style>
  </defs>
  <path class="cls-1" d="M9.51,47.12C10.89,27.11,27.11,10.89,47.12,9.51c22.27-1.54,41.04,14.91,43.25,36.26.25,2.4,2.26,4.23,4.67,4.23h0c2.77,0,4.97-2.38,4.69-5.13C97.11,19.03,74.81-.98,48.05.04,22.14,1.02,1.02,22.14.04,48.05c-1.02,26.75,19,49.05,44.83,51.69,2.75.28,5.13-1.93,5.13-4.69h0c0-2.41-1.83-4.43-4.23-4.67-21.36-2.21-37.8-20.98-36.26-43.25Z"/>
</svg>