<?xml version="1.0" encoding="UTF-8"?>
<svg id="Layer_1" data-name="Layer 1" xmlns="http://www.w3.org/2000/svg" viewBox="0 0 100 99.95">
  <defs>
    <style>
      .cls-1 {
        fill: #fff;
        stroke-width: 0px;
      }
    </style>
  </defs>
  <path class="cls-1" d="M48.15,98.29c0-.69.09-1.37.28-2.03l5.81-23.66c-2.11.93-4.3,1.59-6.62,1.9-1.25.28-2.49.48-3.7.49-1.48,0-2.93-.14-4.35-.42-1.41-.28-2.9-.83-4.45-1.67-1.55-.83-2.94-1.86-4.15-3.09-1.21-1.23-2.18-2.88-2.93-4.95-.74-2.06-1.11-4.41-1.11-7.05,0-4.96,1.1-9.88,3.3-14.75.04-.08.09-.16.13-.24l6.2-24.57c1.56-6.15,2.59-10.25,3.11-12.32-.66-.07-1.44-.1-2.34-.1s-1.61-.02-2.11-.05c-.5-.04-1.01-.12-1.54-.27-.52-.14-.89-.37-1.12-.69-.22-.32-.34-.79-.34-1.39,0-.07.02-.12.02-.18C13.4,10.39,0,28.61,0,49.97c0,27.27,21.83,49.43,48.97,49.97-.54-.33-.82-.88-.82-1.66Z"/>
  <path class="cls-1" d="M40.25,69.25c1.21.99,2.54,1.56,4.06,1.56,1.91,0,3.75-.66,5.54-1.98,1.79-1.32,3.17-2.79,4.14-4.43,1.77-2.84,3.48-7.52,5.13-14.02,1.64-6.51,2.47-11.15,2.47-13.92s-.61-4.61-1.83-5.77c-1.21-.99-2.54-1.56-4.06-1.56-1.91,0-3.75.66-5.54,1.98-1.79,1.32-3.17,2.79-4.14,4.43-1.77,2.84-3.48,7.52-5.13,14.02-1.64,6.51-2.47,11.15-2.47,13.92s.61,4.61,1.83,5.77Z"/>
  <path class="cls-1" d="M51.03,0c.54.33.82.88.82,1.66,0,.69-.09,1.37-.28,2.03l-5.81,23.66c2.11-.93,4.3-1.59,6.62-1.9,1.25-.28,2.49-.48,3.7-.49,1.48,0,2.93.14,4.35.42,1.41.28,2.9.83,4.45,1.67,1.55.83,2.94,1.86,4.15,3.09,1.21,1.23,2.18,2.88,2.93,4.95.74,2.06,1.11,4.41,1.11,7.05,0,4.96-1.1,9.88-3.3,14.75-.04.08-.09.16-.13.24l-6.2,24.57c-1.56,6.15-2.59,10.25-3.11,12.32.66.07,1.44.1,2.34.1s1.61.02,2.11.05c.5.04,1.01.12,1.54.27.52.14.89.37,1.12.69.22.32.34.79.34,1.39,0,.07-.02.12-.02.18,18.85-7.16,32.25-25.38,32.25-46.75C100,22.7,78.17.55,51.03,0Z"/>
</svg>