<svg id="Layer_1" data-name="Layer 1" xmlns="http://www.w3.org/2000/svg" viewBox="0 0 71.31 98.87">
    <path class="cls-1" d="M62.94,0c-4.45.13-7.88,4-7.88,8.45v8.31c0,5.14-3.6,8.74-8.03,8.74h-21c-5.4,0-9.78-4.38-9.78-9.78v-1.86c0-4.45-3.43-8.33-7.88-8.46S0,8.96,0,13.53v46.94c0,19.43,15.23,35.85,34.66,36.39s36.66-15.62,36.66-35.64V8.13C71.31,3.56,67.54-.13,62.94,0ZM38.43,82.4c-13.97,1.76-25.72-9.99-23.96-23.96,1.2-9.52,8.89-17.21,18.41-18.41,13.97-1.76,25.72,9.99,23.96,23.96-1.2,9.52-8.89,17.21-18.41,18.41Z"/>
    <circle class="cls-1" cx="26.21" cy="57.16" r="4.73"/>
    <circle class="cls-1" cx="45.11" cy="57.16" r="6.75"/>
    <circle class="cls-1" cx="35.66" cy="70.66" r="3.04"/>
  </svg>