<svg id="Layer_1" data-name="Layer 1" xmlns="http://www.w3.org/2000/svg" viewBox="0 0 45.32 98.87">
  <path class="cls-1" d="M41.95,56.46c.04-.08.09-.16.13-.24,2.16-4.79,3.24-9.61,3.24-14.48,0-2.59-.37-4.9-1.09-6.92-.73-2.03-1.69-3.64-2.88-4.86-1.19-1.21-2.55-2.22-4.07-3.04-1.53-.82-2.98-1.36-4.37-1.63-1.4-.27-2.82-.41-4.27-.41-1.19.01-2.41.2-3.64.48-2.27.3-4.43.95-6.5,1.86L24.2,3.99c.18-.65.27-1.31.27-1.99,0-1.33-.8-2-2.4-2h-.82c-1.53.07-3.52.17-5.98.31-4.39.21-7.17.48-8.33.79s-1.74,1.19-1.74,2.62c0,.6.11,1.05.33,1.37.22.31.59.54,1.1.68.51.14,1.01.23,1.51.26.49.03,1.18.05,2.07.05s1.65.03,2.3.1c-.51,2.04-1.53,6.06-3.06,12.1l-6.09,24.12c-.04.08-.09.16-.13.24-2.16,4.79-3.24,9.61-3.24,14.48,0,2.59.37,4.9,1.09,6.92.73,2.03,1.69,3.64,2.88,4.86,1.19,1.21,2.55,2.22,4.07,3.04,1.53.82,2.98,1.36,4.37,1.63,1.4.27,2.82.41,4.27.41,1.19-.01,2.41-.2,3.64-.48,2.27-.3,4.43-.95,6.5-1.86l-5.7,23.23c-.18.65-.27,1.31-.27,1.99,0,1.33.8,2,2.4,2h.82c1.53-.07,3.52-.17,5.98-.31,4.39-.21,7.17-.48,8.33-.79,1.16-.31,1.74-1.19,1.74-2.62,0-.6-.11-1.05-.33-1.37-.22-.31-.59-.54-1.1-.68-.51-.14-1.01-.23-1.51-.26-.49-.03-1.18-.05-2.07-.05s-1.65-.03-2.3-.1c.51-2.04,1.53-6.06,3.06-12.1l6.09-24.12ZM34.03,36.17c0,2.72-.81,7.28-2.42,13.67-1.62,6.39-3.3,10.98-5.04,13.77-.95,1.6-2.31,3.05-4.06,4.35s-3.57,1.94-5.44,1.94c-1.48,0-2.8-.57-3.98-1.53-1.2-1.14-1.79-3.03-1.79-5.67s.81-7.28,2.42-13.67c1.62-6.39,3.3-10.98,5.04-13.77.95-1.6,2.31-3.05,4.06-4.35s3.57-1.94,5.44-1.94c1.48,0,2.8.57,3.98,1.53,1.2,1.14,1.79,3.03,1.79,5.67Z"/>
</svg>